<svg xmlns="http://www.w3.org/2000/svg" width="32" height="32" fill="none" xmlns:v="https://vecta.io/nano"><path d="M558.578 1848.27c-96.292 5.56-207.588-130.39-257.505-205.62-13.151-20.08-7.589-16.2 5.734-19.06 5.568-4.05 6.578-9.79.505-18.56v-.16c-21.75-31.38-66.437-61.91-93.25-93.79-9.447-11.3-7.083-6.92-1.348-10.12 13.489-7.93-2.87-25.47-9.448-32.22-24.954-26.15-48.901-53.13-66.105-85.18-6.239-11.47-6.239-10.46.678-10.8 10.958-.5 13.489-15.18 5.734-26.82-33.391-50.43-57.844-95.98-75.547-153.83-2.365-7.93-3.208-11.65 6.573-5.57 24.287 14.84 8.094-29.01 4.047-36.43l-.167-.17c-8.937-16.53-21.583-39.14-31.031-60.39-6.573-14.85-5.396-15.18 5.229-10.8 11.635 5.06 2.193-25.63-2.359-34.41-18.719-35.76-43-154.678-26.474-191.11 4.552-9.953 8.26-9.786 18.042-10.963 56.662-7.933 119.058 5.395 171.162 32.385 7.255 3.708 24.958 10.964 26.984-2.365 1.349-8.265-9.109-15.687 11.297-2.526 20.912 13.49 43.505 32.891 57.844 49.589 5.224 6.073 25.797 29.687 28.833 9.109 1.854-11.807-7.755-21.083 10.792-1.687 21.25 22.437 50.083 55.328 61.552 75.238 6.578 11.46 23.104 24.62 27.151 6.24 1.516-7.43-3.036-11.983 7.25 1.01 14.672 18.55 29.682 38.63 42.495 58.53 11.13 17.03 19.057 20.07 25.297 16.02 7.755-5.06 1.854-11.13 13.994 8.77 30.188 50.1 41.318 83.84 60.881 143.38 3.203 9.62 11.297 46.39 26.812 39.31 7.25-3.38 2.698-16.37 9.443 5.39 13.995 45.88 14.333 82.49 13.995 129.04 0 12.82.505 24.29 2.192 30.87 2.36 8.94 9.443 15.69 18.042 9.95 3.375-2.19 3.714-3.54 5.568 4.73 10.791 44.53 16.526 96.65 14.5 148.61-3.709 94.62-33.724 199.54-119.391 244.41zm704.882-248.13c3.55-1.85.68-7.42-2.86-5.73-73.02 36.26-181.45 67.8-265.095 57.01 33.895-49.09 59.695-102.73 81.625-158.73 84.48 10.29 195.95-17.2 271.33-50.94 3.71-1.69 1.01-7.59-2.7-5.9-74.2 33.23-183.13 60.22-266.28 50.77l9.11-23.95c11.47-31.54 11.81-43.35 2.02-47.57-3.87-1.69-7.41-1.18-11.46.34-9.78 3.37-8.94 6.24-3.71-5.4l34.74-74.89c2.36-5.4 1.18-4.22 7.08-2.53 71.84 20.91 202.19-12.99 267.29-35.09 3.87-1.18 1.68-7.25-2.2-6.07-63.4 21.59-192.24 55.33-262.56 35.42-6.41-1.85-5.57-.84-3.03-6.75 4.38-10.29 8.59-20.58 12.64-31.04 3.2-8.09 3.71-8.26 9.62-14.33 29.17-31.21 64.92-66.12 104.89-102.56 67.78 54.48 218.2 6.58 283.64-25.13 3.71-1.69.67-7.59-2.87-5.91-62.9 30.71-210.46 78.1-276.22 26.65 45.87-41.82 97.3-86.19 150.93-129.88 43 38.8 150.25 32.73 200.67 24.63 4.04-.67 2.7-6.92-1.35-6.41-48.06 7.93-152.95 14-194.43-21.93l3.37-2.86c41.31-33.406 83.81-66.13 125.96-97.166 26.82 24.963 91.24 25.302 124.12 24.291 4.05-.171 3.37-6.578-.51-6.411-30.69 1.01-93.08.844-118.54-21.589 58.34-42.51 116.18-81.474 169.47-113.187 4.22-2.526 5.57-8.432 2.87-12.984-2.7-4.558-8.43-6.245-12.82-3.714-53.79 32.052-111.97 71.354-170.49 114.026-17.53-39.13 10.97-95.469 27.83-128.703 2.02-3.708-3.54-6.912-5.4-3.203-18.38 35.76-47.38 93.62-27.48 135.62-42.67 31.203-85.33 64.265-126.98 97.83-1.19.85-2.2 1.86-3.38 2.7-29.51-54.312 9.78-148.27 36.6-193.473 2.02-3.542-3.21-7.083-5.4-3.542-28.16 47.735-67.96 144.219-36.09 200.895-53.96 44.03-105.9 88.56-152.27 131.06-37.27-60.22 20.57-205.444 54.46-255.205 2.2-3.375-2.86-7.255-5.22-3.88-35.42 52.12-94.1 200.555-53.8 263.305-30.69 28.17-59.02 55.5-83.81 80.8 7.42-24.96 13.66-51.28 18.21-80.46 2.2-13.49 2.87-23.28-.67-28.84-3.54-5.74-8.1-7.76-14.16-5.4-8.61 3.2-8.27 7.59-3.72-5.74 16.36-48.74 29.51-108.29 32.89-160.243.67-12.146 1.01-49.422-20.74-33.906-9.45 6.75-7.42 9.281-4.22-4.719 9.78-41.667 15.35-81.474 12.65-125.162-1.35-22.265-11.81-16.698 1.85-29.52 41.99-39.641 90.39-74.386 144.52-95.474 20.41-7.928 15.85-8.094 9.44 7.421-2.36 5.907-3.71 11.303-4.04 15.355-1.35 21.755 18.04 18.89 29.85 6.239 15.17-16.193 46.03-33.062 79.08-44.87 26.14-9.614 53.12-16.026 74.2-16.531 11.3-.338 7.76.172 3.21 8.943-18.21 36.265 2.36 30.193 26.47 25.635 81.12-15.349 141.99 10.459 215.18 41.667 69.65 29.687 71.67 11.13 65.43 81.302-7.76 84.849-16.19 179.646-73.86 243.743-10.46 11.47-6.24 21.09 9.61 21.09 11.63 0 11.47.5 5.73 11.13-16.02 29.52-43.16 66.29-66.61 86.87-10.79 9.44-45.02 42.51-7.25 44.53 11.47.51 10.96-2.02 2.7 7.93-16.02 19.23-49.75 58.53-92.92 88.72-4.04 2.87-8.26 4.89-12.31 7.42-24.45 16.2-11.46 37.45 15.68 39.31 13.5.84 14.85-1.52 1.86 18.55-8.6 12.99-23.78 30.02-44.86 50.61-21.25 20.74-48.39 45.03-80.6 72.7-12.82 11.64-30.69 25.3-10.63 36.43 5.06 2.7 2.87 4.39.34 7.09-6.75 5.56-20.06 16.87-35.92 30.69-38.11 32.9-91.23 78.61-104.05 86.54-22.26 13.66-25.8 22.77-21.07 30.36 10.28 6.41 19.39 8.1-.17 19.91-93.93 67.8-193.09 106.1-288.2 127.18-70.821 15.35-139.456 21.25-201.852 22.6-34.568.51-30.86 2.87-5.058-14.17 70.657-47.06 139.625-106.94 188.698-176.44 85.332 12.49 197.642-20.07 272.002-57.18zm-604.21-270.9c10.12 9.11 21.25 17.38 33.224 23.28l-14.672 68.15c-2.359 10.46-.672 5.23-5.396 0-2.192-2.37-5.057-3.88-8.432-3.88-8.26-.17-7.755 9.61-7.755-7.76.166-27.84.333-51.78-2.698-77.09-1.521-11.81-2.698-10.63 5.729-2.7zm304.552 104.08c2.531-3.21-2.359-7.42-4.885-4.22-57.506 70.68-168.974 163.28-262.396 173.74 1.349-39.3-1.516-78.6-7.589-114.87-2.864-17.2-3.708-15.69.167-32.56l21.25-96.48c98.312 22.77 245.193-108.8 301.351-177.79 2.52-3.03-2.19-7.42-4.73-4.22-54.465 66.8-199.996 197.87-295.272 175.94 13.995-68.32 27.151-139.84 38.281-213.72 86.339-.17 188.698-131.4 226.813-200.389 2.021-3.547-3.375-6.917-5.401-3.375-36.927 66.794-137.099 196.004-220.401 197.354 11.635-78.6 21.078-159.739 27.317-242.224 67.792 6.24 140.979-105.932 172.344-157.208 2.193-3.542-3.203-7.083-5.229-3.542C916.755 776.48 843.229 888.991 780.5 884.267c-.505 0-1.182-.172-1.687-.172 5.062-70 7.76-140.511 7.588-211.016h1.182c45.193-1.349 87.183-82.989 104.386-118.922 1.682-3.708-3.88-6.745-5.568-3.036-15.849 33.234-57.505 114.198-99.323 115.547h-.677c-.505-72.026-4.213-144.391-11.635-216.245 33.39-10.125 63.406-67.307 77.573-97.162 1.687-3.541-3.881-6.578-5.568-3.036-13.318 27.833-42.156 83.161-72.677 93.62-9.953-93.62-26.479-186.391-51.099-276.469-3.37-12.313-21.245-7.927-17.875 4.219 24.453 89.062 40.64 180.823 50.588 273.427-40.974-5.901-75.208-62.24-95.276-95.641-2.192-3.708-7.416-.505-5.229 3.209 21.589 35.755 56.833 93.447 101.182 99.01 7.25 70.677 10.964 141.859 11.297 212.875-45.698-12.313-84.484-75.734-107.922-114.531-2.192-3.714-7.255-.506-5.229 3.036 24.787 41.156 64.589 105.927 113.323 117.906.167 70.172-2.364 140.172-7.422 209.839-71.666-20.245-122.26-124.823-152.276-187.745-1.854-3.875-7.422-1.349-5.562 2.531 31.192 65.448 82.797 171.214 157.333 191.62-6.239 82.823-15.854 164.299-27.489 243.239-89.037-24.29-175.209-197.02-208.261-276.635-1.516-4.046-7.25-1.687-5.562 2.193 34.062 82.313 120.906 256.062 212.812 280.682-10.958 72.36-23.776 142.54-37.604 209.67-13.662-6.91-26.307-17.04-37.271-28.17-6.239-6.24-5.901-5.06-7.588-13.33-2.698-12.82-6.573-26.31-11.636-41.15-9.104-26.82-17.37-33.41-24.448-31.04-9.276 2.86-5.062 6.74-7.927-1.85-23.609-72.03-35.411-107.46-81.453-176.95-7.922-12.15-14.5-14-20.234-10.29-7.927 5.4-.167 14.33-11.974-2.19-14.839-20.92-30.688-42.851-47.552-62.08-15.011-17.036-24.115-21.755-29.172-16.021-6.578 7.084.838 13.828-10.964-.677-4.385-5.567-9.276-11.468-14.166-17.375-9.105-10.625-8.094-7.422-8.938-21.25-2.698-45.713-5.901-116.896-2.698-157.547 1.854-25.64.677-17.546 9.781-1.182 24.287 44.193 43 23.109 36.427-30.365-2.531-34.411-2.026-69.494 4.891-102.723 3.031-14.844 3.203-18.386 13.151.166 8.266 15.354 15.516 24.63 21.25 28.339 29.172 19.567 24.115-21.589 19.052-47.229-11.463-47.063-21.245-130.391-1.515-174.75 4.89-10.964 2.192-5.568 9.276-.678C510.349 451.6 509 403.527 509 395.6c-.505-41.495 3.542-81.474 16.865-120.099 8.093-23.276 4.89-20.073 13.656-.844 8.432 18.047 15.349 24.12 22.094 21.927 9.104-2.864 10.625-18.89 12.817-39.974.839-8.604 1.683-18.39 3.37-29.015 10.964-75.229 28.667-122.797 73.859-181.162 25.636-33.568 16.698-27.833 50.594-1.349 88.193 68.823 138.276 89.568 194.771 200.391 10.287 20.411 30.693 39.302 29.51 9.448-1.687-11.136-.843-16.87 8.433-2.87 25.463 38.458 55.984 114.87 64.25 159.74 3.201 16.869 15.511 59.208 28.161 20.578 3.2-9.615 3.2-9.276 8.26 7.927 17.2 59.042 27.32 131.406 34.91 191.958 2.53 20.073 7.42 54.318 29.17 22.438 5.4-10.797 5.4-11.474 8.94 1.177 8.94 31.88 14.33 65.448 17.2 98.172 1.18 14.172 1.69 28.172.84 40.823-.84 15.182 3.38 21.421 10.12 22.265 11.13 1.349 12.99-22.265 12.31 6.073-.84 32.724-6.41 64.099-13.99 95.807-2.7 11.303-3.37 19.23-2.36 24.459 2.19 13.161 13.82 15.015 22.93 8.942 6.41-4.218 5.73-6.411 5.06 3.542-3.54 55.156-18.05 116.056-36.09 167.326-6.41 18.56-10.46 29.86-4.72 36.1 4.72 5.06 10.79 4.22 19.73-2.7 9.61-7.42 8.26-9.44 5.9 4.22-15.01 88.56-48.56 158.22-85.83 237.67-6.41 13.67-12.31 25.98-9.28 34.07 2.87 7.93 9.11 10.97 19.9 7.26 7.93-2.87 5.73 1.68.68 15.18-60.38 165.47-133.393 265.5-278.758 362.16-15.51 10.45-32.375 20.57-50.25 29.34-34.401 17.04-107.588 44.87-145.193 30.54-6.916-2.7-14.333-7.43-22.26-15.53 85.667-49.42 117.198-154.67 121.755-252.17 95.276-10.12 208.766-104.08 267.448-176.1zm-389.37 373.62c2.865 12.49-16.021 16.53-18.89 4.05-9.104-41.66-20.235-84-33.052-126.68-50.422 7.76-110.62-40.31-148.23-70.84-3.203-2.7.339-7.59 3.714-4.9 35.411 28.85 94.599 76.42 142.495 69.5-17.875-58.7-38.959-117.57-63.24-176.1-65.937 25.3-153.458-35.93-207.083-73.88-3.542-2.37-.167-7.59 3.208-5.23 51.432 36.27 138.11 97.5 201.344 73.04-24.62-58.87-52.104-117.4-82.292-174.08-47.552 17.71-113.656-21.42-154.635-46.22-3.542-2.19-.677-7.59 2.864-5.4 38.62 23.28 103.542 61.91 148.568 45.88-26.474-49.42-54.974-97.66-85.328-143.88-37.271 19.91-92.75-9.61-127.318-28.33-3.713-1.86-1.01-7.6 2.698-5.57 31.87 17.2 86.172 46.38 121.078 28.5-27.489-41.66-56.323-81.64-86.338-119.59-27.656 9.61-66.948-7.59-92.078-18.89-3.875-1.69-1.516-7.6 2.192-5.91 22.599 10.29 59.865 26.83 85.5 19.4-30.354-37.78-61.89-73.543-94.437-106.434-8.937-9.109 4.724-22.604 13.661-13.661 33.558 33.901 66.104 70.677 97.131 109.805 14.505-18.89 6.75-69.326 3.036-90.41-.844-4.218 5.229-5.062 6.073-.843 4.385 23.953 12.141 75.903-4.891 96.313 29.344 37.11 57.672 76.24 84.485 116.9 15.343-26.32 10.963-82.66 7.927-110.15-.505-4.21 5.562-4.72 6.067-.34 3.375 29.86 7.928 89.07-10.114 116.22 31.026 47.4 60.203 96.66 87.349 147.26 29.51-26.99 26.479-111.33 24.114-147.93-.166-4.22 5.907-4.22 6.24 0 2.531 39.64 5.568 125.5-27.146 153.84 30.182 56.84 57.839 115.03 82.459 173.9 40.302-33.73 44.687-142.87 45.192-191.45 0-4.05 6.073-3.71 6.073.34-.505 51.45-5.057 163.11-48.568 197.35 24.792 59.89 46.375 120.11 64.756 179.82 36.593-19.23 46.208-110.15 49.073-147.6.338-4.21 6.406-3.37 6.239.84-3.203 40.66-13.151 133.43-53.458 153 13.156 43.18 24.286 86.19 33.562 128.36zM761.109 1867c75.547 1.17 162.563-3.21 253.291-23.11 97.13-21.26 198.48-60.39 294.59-129.72 25.81-18.73 28.68-30.02 22.94-38.12-1.85-2.36-4.04-4.05-6.58-5.4-4.21-2.02-.84-3.54 3.88-6.24 14-8.6 67.62-54.99 106.24-88.22l35.75-30.53c21.25-16.7 27.66-34.92 7.42-36.1-6.57-.34-.67-4.39 2.87-7.42 32.38-27.67 59.87-52.12 81.62-73.55 21.92-21.42 37.94-39.46 47.21-53.47 16.36-25.3 20.07-35.93 8.94-43.85-5.06-3.88-12.31-4.39-23.27-4.89-.34 0-13.99-.85-4.05-6.58 2.7-1.52 5.74-3.38 8.6-5.23 48.23-33.74 84.83-77.93 99.5-95.81 16.7-21.25 17.53-41.5-3.71-36.44-10.79 2.54-8.77 1.01-3.04-4.72 1.69-1.69 3.88-3.38 6.08-5.4 27.31-23.78 58.84-65.44 74.19-99.01 4.56-10.29 10.12-24.97-4.72-30.53-8.09-3.21-9.28.67-3.04-7.76 49.25-67.81 57-152.659 64.76-237.675 7.59-83.328-.51-68.818-77.4-101.542-74.88-31.88-137.27-58.531-221.59-43.859-10.28 1.854-10.62 4.047-4.55-6.24 7.76-13.156 13.83-23.953-9.61-26.989-24.96-3.203-61.89 4.047-96.8 16.87-23.78 8.598-46.88 19.734-64.75 31.88-16.19 11.13-9.11 8.771-4.22-3.88 9.61-24.12-17.71-21.928-32.21-17.037-62.39 21.589-118.04 60.557-165.6 105.76-10.45 9.954-8.43 11.469-9.94-2.864-3.38-35.255-10.8-70.677-19.23-105.261-4.89-19.901-15.17-32.723-31.03-13.661-5.56 6.75-3.71 7.76-5.22-3.542-7.76-59.713-19.06-149.786-39.8-205.791-3.55-9.782-12.82-30.532-25.47-23.276-8.26 4.724-4.72 13.328-9.1-3.881-11.98-47.734-38.284-113.354-65.435-154.338-4.047-6.073-27.484-44.198-33.557-22.099-3.203 11.807-4.719 12.146-11.802.672C841.547 117.954 797.531 95.855 713.047 30.074c-40.979-31.885-35.412-49.088-76.224 3.875-46.88 61.062-66.104 111.333-77.401 189.937-1.182 7.084-2.026 14.506-2.698 21.756-1.182 12.317 2.193 39.474-9.948-2.865-5.062-14.677-11.13-21.255-22.432-9.276-4.214 4.385-9.104 14.672-16.016 34.745-14 40.823-18.552 82.823-18.047 126.51 1.011 9.11 1.183 22.099-4.89 15.688-9.276-9.782-17.703 11.64-20.573 17.713-23.271 48.917-12.308 139.834-.505 189.089 4.552 19.062 7.421 31.88-6.073 6.578-20.74-38.797-39.12-38.292-47.552 3.375-7.084 34.917-7.761 72.026-5.23 108.12 1.521 21.088 4.724 36.271-8.093 8.265-4.047-8.771-7.927-14.333-11.802-17.203-10.12-7.588-17.204-3.541-21.756 9.276-2.192 6.412-3.708 16.193-4.552 28.172-2.698 34.745-.844 90.917 1.349 135.281 1.177 21.422 0 12.818-14.672-1.349-18.885-18.218-28.333-22.099-33.896-16.026-7.421 8.433 5.396 18.219-12.312 2.193-18.208-16.193-52.443-42.844-74.87-46.891-10.458-1.859-15.177 1.011-16.021 7.084-1.01 8.432 4.891 9.781-6.744 4.552-53.12-23.448-113.49-33.734-169.48-24.625-8.937 1.516-12.307 2.021-18.719 9.781-28.161 34.412-7.589 139.667 9.781 192.631 6.578 20.08 5.063 10.46-3.37 12.15-11.635 2.36-1.016 29.35 1.854 37.61 6.406 18.39 21.417 46.9 32.714 68.49 8.094 15.35 2.87 9.61-2.698 9.61-7.755 1.86-11.297 9.11-6.745 25.81 15.682 56.17 35.073 101.21 65.599 148.78 20.068 31.54 4.891 16.19.844 22.09-4.552 6.92-1.688 19.06 1.177 25.64 15.177 32.73 40.135 64.77 64.927 91.93 22.26 24.12-5.063 6.41 2.698 25.64 2.021 5.57 8.094 15.01 19.562 28.84 21.078 25.14 46.881 45.89 70.318 68.49 15.682 15.35 10.453 8.77 2.865 13.66-7.417 4.73-8.938 14.17 3.208 33.06 54.13 85.69 170.995 230.59 278.75 229.24 12.307 15.01 24.453 23.11 35.75 27.32 37.943 14.68 100.167-4.55 140.807-22.09 17.875-7.76 9.276-6.07 29.177-5.73z" fill="#2da966"/></svg>